<svg xmlns="http://www.w3.org/2000/svg" width="20.727" height="18.999" viewBox="0 0 20.727 18.999"><defs><style>.a{fill:#3e2723;}.b{fill:#ffeb3b;}</style></defs><g transform="translate(0 -1)"><path class="a" d="M10.364,1C4.64,1,0,4.634,0,9.117c0,2.9,1.94,5.442,4.858,6.877-1.449,4.965-2.3,5.288,3.665,1.111a13.258,13.258,0,0,0,1.84.128c5.723,0,10.364-3.634,10.364-8.117S16.087,1,10.364,1Z"/><g transform="translate(2.516 6.672)"><path class="b" d="M9.895,8.179a.838.838,0,0,0-1.593,0c-.85,2.636-1.988,4.262-1.289,4.582.931.422.951-.528,1.174-.95h1.823c.222.421.244,1.371,1.174.95C11.885,12.44,10.761,10.864,9.895,8.179ZM8.5,10.758l.6-1.685.6,1.685Z" transform="translate(-3.442 -7.572)"/><path class="b" d="M5.031,12.846c-1.035,0-.423-1.431-.6-4.1-.37-.064-1.52.256-1.52-.581A.585.585,0,0,1,3.5,7.589c2.175.155,3.648-.406,3.648.581,0,.852-1.1.51-1.52.581C5.455,11.407,6.064,12.846,5.031,12.846Z" transform="translate(-2.913 -7.567)"/><path class="b" d="M13.06,12.763c-1,0-.392-1.352-.573-4.578a.611.611,0,0,1,1.22,0v3.489c.578.077,1.844-.285,1.844.544,0,.87-1.361.434-2.492.545Z" transform="translate(-4.216 -7.571)"/><path class="b" d="M19.109,12.59l-1.4-1.846-.207.206v1.3a.6.6,0,0,1-.6.594c-1.039,0-.416-1.5-.6-4.657a.6.6,0,0,1,.6-.594c.9,0,.513,1.276.6,1.871,1.693-1.618,1.652-1.789,2-1.789a.565.565,0,0,1,.455.914L18.591,9.938l1.472,1.937A.6.6,0,0,1,19.109,12.59Z" transform="translate(-4.736 -7.57)"/></g></g></svg>